<svg width="18" height="18" viewBox="0 0 18 18" fill="none" xmlns="http://www.w3.org/2000/svg">
<path d="M16.92 9.1875C16.92 8.6025 16.8675 8.04 16.77 7.5H9V10.6913H13.44C13.2488 11.7225 12.6675 12.5963 11.7938 13.1813V15.2512H14.46C16.02 13.815 16.92 11.7 16.92 9.1875Z" fill="#4285F4"/>
<path d="M8.99994 17.2499C11.2274 17.2499 13.0949 16.5111 14.4599 15.2511L11.7937 13.1811C11.0549 13.6761 10.1099 13.9686 8.99994 13.9686C6.85119 13.9686 5.03244 12.5174 4.38369 10.5674H1.62744V12.7049C2.98494 15.4011 5.77494 17.2499 8.99994 17.2499Z" fill="#34A853"/>
<path d="M4.38375 10.5674C4.21875 10.0724 4.125 9.54367 4.125 8.99992C4.125 8.45617 4.21875 7.92742 4.38375 7.43242V5.29492H1.6275C1.05 6.44457 0.749491 7.71338 0.750001 8.99992C0.750001 10.3312 1.06875 11.5912 1.6275 12.7049L4.38375 10.5674Z" fill="#FBBC05"/>
<path d="M8.99994 4.03125C10.2112 4.03125 11.2987 4.4475 12.1537 5.265L14.5199 2.89875C13.0912 1.5675 11.2237 0.75 8.99994 0.75C5.77494 0.75 2.98494 2.59875 1.62744 5.295L4.38369 7.4325C5.03244 5.4825 6.85119 4.03125 8.99994 4.03125Z" fill="#EA4335"/>
</svg>
