<svg width="52" height="52" viewBox="0 0 52 52" fill="none" xmlns="http://www.w3.org/2000/svg">
<g clip-path="url(#clip0_6640_19137)">
<path d="M52.3333 26.1667C52.3333 11.7152 40.6182 0 26.1667 0C11.7152 0 0 11.7152 0 26.1667C0 40.6182 11.7152 52.3333 26.1667 52.3333C40.6182 52.3333 52.3333 40.6182 52.3333 26.1667Z" fill="#F7F9FF"/>
<path d="M37.5783 19.5107H13.5787C13.0084 19.5107 12.5461 19.9731 12.5461 20.5433V37.9677C12.5461 38.5379 13.0084 39.0002 13.5787 39.0002H37.5783C38.1485 39.0002 38.6108 38.5379 38.6108 37.9677V20.5433C38.6108 19.9731 38.1485 19.5107 37.5783 19.5107Z" fill="#4989F5"/>
<path d="M37.2769 19.3643H13.8508C13.1251 19.3643 12.5604 24.9803 12.5604 25.706L25.3892 39.0001H37.2769C38.0047 38.9982 38.5942 38.4084 38.5962 37.6806V20.6834C38.5941 19.9556 38.0045 19.3662 37.2769 19.3643Z" fill="url(#paint0_linear_6640_19137)"/>
<path d="M18.4971 22.7744H25.9441V13.0002H19.6121L18.4971 22.7744Z" fill="#3C4BA6"/>
<path d="M33.3915 22.7744H25.9445V13.0002H32.2764L33.3915 22.7744ZM38.6107 14.8531L38.6199 14.8864C38.6177 14.8746 38.6131 14.8637 38.6107 14.8531Z" fill="#7BABF7"/>
<path d="M38.6206 14.8861L38.6115 14.8528C38.3754 13.7717 37.4184 13.0007 36.3118 13H32.2772L33.3915 22.7744H40.8385L38.6206 14.8861Z" fill="#3F51B5"/>
<path d="M13.2783 14.8533L13.2698 14.884C13.2718 14.8732 13.276 14.8631 13.2783 14.8533Z" fill="#7BABF7"/>
<path d="M13.269 14.8861L13.2782 14.8528C13.5143 13.7717 14.4712 13.0007 15.5778 13H19.6126L18.4967 22.7744H11.0497L13.269 14.8861Z" fill="#7BABF7"/>
<path fill-rule="evenodd" clip-rule="evenodd" d="M18.4967 22.7705C18.4967 24.8235 16.8296 26.488 14.7732 26.488C12.7168 26.488 11.0497 24.8235 11.0497 22.7705H18.4967Z" fill="#709BE0"/>
<path fill-rule="evenodd" clip-rule="evenodd" d="M25.9441 22.7705C25.9441 24.8235 24.277 26.488 22.2206 26.488C20.1642 26.488 18.4971 24.8235 18.4971 22.7705H25.9441Z" fill="#3C4BA6"/>
<path fill-rule="evenodd" clip-rule="evenodd" d="M33.3905 22.7705C33.3905 24.8235 31.7234 26.488 29.667 26.488C27.6106 26.488 25.9435 24.8235 25.9435 22.7705H33.3905Z" fill="#709BE0"/>
<path fill-rule="evenodd" clip-rule="evenodd" d="M40.8383 22.7705C40.8383 24.8235 39.1712 26.488 37.1148 26.488C35.0583 26.488 33.3912 24.8235 33.3912 22.7705H40.8383Z" fill="#3C4BA6"/>
<path d="M37.1164 32.8542C37.1032 32.6771 37.0813 32.5153 37.0503 32.3086H32.9909C32.9909 32.8763 32.9909 33.496 32.9886 34.0641H35.3403C35.2904 34.3288 35.1885 34.581 35.0408 34.8064C34.8931 35.0316 34.7023 35.2254 34.4794 35.3767C34.4794 35.3767 34.4794 35.367 34.4777 35.3667C34.1899 35.5556 33.8656 35.6822 33.5258 35.7381C33.1852 35.8005 32.836 35.7991 32.4959 35.7337C32.1506 35.6622 31.8236 35.5205 31.5353 35.3174C31.1098 35.0157 30.7817 34.5964 30.5909 34.1109C30.5764 34.073 30.5629 34.035 30.5493 33.9963V33.9921L30.5529 33.9893C30.3679 33.4462 30.3675 32.8573 30.5516 32.3139C30.6812 31.9329 30.8946 31.5856 31.1761 31.2977C31.8365 30.6147 32.8232 30.3578 33.7327 30.6319C34.0816 30.739 34.4002 30.9265 34.663 31.1795L35.4565 30.3862C35.5964 30.2448 35.7418 30.1078 35.8764 29.9617C35.4742 29.5865 35.002 29.294 34.4867 29.1011C33.549 28.761 32.5233 28.7521 31.5799 29.0756C31.5469 29.0868 31.5142 29.0985 31.4819 29.1106C30.464 29.4933 29.6266 30.2437 29.1352 31.2136C28.9617 31.557 28.8352 31.9223 28.7595 32.2995C28.31 34.5327 29.6728 36.731 31.8729 37.322C32.5921 37.5146 33.3568 37.5099 34.0816 37.3453C34.7402 37.1966 35.3491 36.88 35.8492 36.4266C36.3712 35.9465 36.7451 35.3069 36.9411 34.6273C37.105 34.0515 37.1643 33.4511 37.1164 32.8542Z" fill="white"/>
</g>
<defs>
<linearGradient id="paint0_linear_6640_19137" x1="12.5604" y1="29.182" x2="38.596" y2="29.182" gradientUnits="userSpaceOnUse">
<stop offset="0.03" stop-color="#4079D8"/>
<stop offset="1" stop-color="#4989F5"/>
</linearGradient>
<clipPath id="clip0_6640_19137">
<rect width="52" height="52" fill="white"/>
</clipPath>
</defs>
</svg>
